<?xml version="1.0" encoding="UTF-8"?>
<svg id="Layer_3" data-name="Layer 3" xmlns="http://www.w3.org/2000/svg" viewBox="0 0 1081 1081">
  <path d="M576.93,748.84h-72.85c-31.64,0-60.88,16.88-76.7,44.29l-36.43,63.09c-15.82,27.4-15.82,61.17,0,88.57l36.43,63.09c15.82,27.4,45.06,44.29,76.7,44.29h72.85c31.64,0,60.88-16.88,76.7-44.29l36.43-63.09c15.82-27.4,15.82-61.17,0-88.57l-36.43-63.09c-15.82-27.4-45.06-44.29-76.7-44.29Z"/>
  <path d="M576.93,388.84h-72.85c-31.64,0-60.88,16.88-76.7,44.29l-36.43,63.09c-15.82,27.4-15.82,61.17,0,88.57l36.43,63.09c15.82,27.4,45.06,44.29,76.7,44.29h72.85c31.64,0,60.88-16.88,76.7-44.29l36.43-63.09c15.82-27.4,15.82-61.17,0-88.57l-36.43-63.09c-15.82-27.4-45.06-44.29-76.7-44.29Z"/>
  <path d="M576.93,28.84h-72.85c-31.64,0-60.88,16.88-76.7,44.29l-36.43,63.09c-15.82,27.4-15.82,61.17,0,88.57l36.43,63.09c15.82,27.4,45.06,44.29,76.7,44.29h72.85c31.64,0,60.88-16.88,76.7-44.29l36.43-63.09c15.82-27.4,15.82-61.17,0-88.57l-36.43-63.09c-15.82-27.4-45.06-44.29-76.7-44.29Z"/>
</svg>